<svg version="1.1" viewBox="0.0 0.0 130.0 60.0" fill="none" stroke="none" stroke-linecap="square" stroke-miterlimit="10" xmlns:xlink="http://www.w3.org/1999/xlink" xmlns="http://www.w3.org/2000/svg"><clipPath id="p.0"><path d="m0 0l130.0 0l0 60.0l-130.0 0l0 -60.0z" clip-rule="nonzero"/></clipPath><g clip-path="url(#p.0)"><path fill="#000000" fill-opacity="0.0" d="m0 0l130.0 0l0 60.0l-130.0 0z" fill-rule="evenodd"/><path fill="#d4a578" d="m64.99325 2.992126l59.11811 0l0 54.015747l-59.11811 0z" fill-rule="evenodd"/><path stroke="#000000" stroke-width="1.0" stroke-linejoin="round" stroke-linecap="butt" d="m64.99325 2.992126l59.11811 0l0 54.015747l-59.11811 0z" fill-rule="evenodd"/><path fill="#000000" fill-opacity="0.0" d="m90.16895 18.731161c-3.2118301 0 -16.733215 -0.6982956 -19.270966 0c-2.5377502 0.6982937 3.3703766 3.4914722 4.0444565 4.189766" fill-rule="evenodd"/><path stroke="#000000" stroke-width="2.0" stroke-linejoin="round" stroke-linecap="butt" d="m90.16895 18.731161c-3.2118301 0 -16.733215 -0.6982956 -19.270966 0c-2.5377502 0.6982937 3.3703766 3.4914722 4.0444565 4.189766" fill-rule="evenodd"/><path fill="#000000" fill-opacity="0.0" d="m80.20501 19.668987c-0.8868027 3.0660896 -6.453949 15.231533 -5.320793 18.396538c1.1331558 3.1650085 10.09977 0.49457932 12.11972 0.5934944" fill-rule="evenodd"/><path stroke="#000000" stroke-width="2.0" stroke-linejoin="round" stroke-linecap="butt" d="m80.20501 19.668987c-0.8868027 3.0660896 -6.453949 15.231533 -5.320793 18.396538c1.1331558 3.1650085 10.09977 0.49457932 12.11972 0.5934944" fill-rule="evenodd"/><path fill="#000000" fill-opacity="0.0" d="m79.56038 19.66929l39.307083 0l0 16.661417l-39.307083 0z" fill-rule="evenodd"/><path fill="#000000" d="m87.21663 29.90929l-1.671875 0l-0.671875 -1.734375l-3.046875 0l-0.625 1.734375l-1.640625 0l2.96875 -7.625l1.625 0l3.0625 7.625zm-2.84375 -3.015625l-1.046875 -2.828125l-1.03125 2.828125l2.078125 0zm3.6643524 3.015625l0 -7.625l5.65625 0l0 1.28125l-4.125 0l0 1.703125l3.828125 0l0 1.28125l-3.828125 0l0 2.078125l4.265625 0l0 1.28125l-5.796875 0zm7.0763855 0l0 -7.625l2.3125 0l1.375 5.203125l1.375 -5.203125l2.3125 0l0 7.625l-1.4375 0l0 -6.0l-1.515625 6.0l-1.484375 0l-1.5 -6.0l0 6.0l-1.4375 0zm8.5173645 -2.484375l1.5 -0.140625q0.125 0.75 0.53125 1.109375q0.421875 0.34375 1.125 0.34375q0.75 0 1.125 -0.3125q0.375 -0.3125 0.375 -0.734375q0 -0.265625 -0.15625 -0.453125q-0.15625 -0.1875 -0.5625 -0.328125q-0.265625 -0.09375 -1.234375 -0.34375q-1.234375 -0.296875 -1.734375 -0.75q-0.703125 -0.625 -0.703125 -1.53125q0 -0.59375 0.328125 -1.09375q0.34375 -0.515625 0.953125 -0.78125q0.625 -0.265625 1.5 -0.265625q1.4375 0 2.15625 0.640625q0.734375 0.625 0.78125 1.671875l-1.546875 0.078125q-0.09375 -0.59375 -0.421875 -0.84375q-0.328125 -0.265625 -0.984375 -0.265625q-0.671875 0 -1.046875 0.28125q-0.234375 0.171875 -0.234375 0.46875q0 0.265625 0.21875 0.46875q0.296875 0.234375 1.421875 0.5q1.125 0.265625 1.65625 0.5625q0.546875 0.28125 0.84375 0.78125q0.3125 0.484375 0.3125 1.203125q0 0.65625 -0.375 1.234375q-0.359375 0.5625 -1.03125 0.84375q-0.65625 0.28125 -1.65625 0.28125q-1.4375 0 -2.21875 -0.671875q-0.78125 -0.671875 -0.921875 -1.953125zm14.3732605 2.484375l-1.671875 0l-0.671875 -1.734375l-3.046875 0l-0.625 1.734375l-1.640625 0l2.96875 -7.625l1.625 0l3.0625 7.625zm-2.84375 -3.015625l-1.046875 -2.828125l-1.03125 2.828125l2.078125 0z" fill-rule="nonzero"/><path fill="#d4a578" d="m5.8897614 2.992126l59.11811 0l0 54.015747l-59.11811 0z" fill-rule="evenodd"/><path stroke="#000000" stroke-width="1.0" stroke-linejoin="round" stroke-linecap="butt" d="m5.8897614 2.992126l59.11811 0l0 54.015747l-59.11811 0z" fill-rule="evenodd"/><path fill="#000000" fill-opacity="0.0" d="m6.108942 3.3042076l5.0708656 6.9606295" fill-rule="evenodd"/><path stroke="#000000" stroke-width="1.0" stroke-linejoin="round" stroke-linecap="butt" d="m6.108942 3.3042076l5.0708656 6.9606295" fill-rule="evenodd"/><path fill="#000000" fill-opacity="0.0" d="m64.99325 3.3042076l-5.228348 6.740157" fill-rule="evenodd"/><path stroke="#000000" stroke-width="1.0" stroke-linejoin="round" stroke-linecap="butt" d="m64.99325 3.3042076l-5.228348 6.740157" fill-rule="evenodd"/><path fill="#000000" fill-opacity="0.0" d="m11.060368 49.272964l-4.976378 7.5905533" fill-rule="evenodd"/><path stroke="#000000" stroke-width="1.0" stroke-linejoin="round" stroke-linecap="butt" d="m11.060368 49.272964l-4.976378 7.5905533" fill-rule="evenodd"/><path fill="#000000" fill-opacity="0.0" d="m59.7769 49.16273l5.259842 6.70866" fill-rule="evenodd"/><path stroke="#000000" stroke-width="1.0" stroke-linejoin="round" stroke-linecap="butt" d="m59.7769 49.16273l5.259842 6.70866" fill-rule="evenodd"/><path fill="#ad8762" d="m10.544406 9.528265l49.732285 0l0 40.125984l-49.732285 0z" fill-rule="evenodd"/><path stroke="#000000" stroke-width="1.0" stroke-linejoin="round" stroke-linecap="butt" d="m10.544406 9.528265l49.732285 0l0 40.125984l-49.732285 0z" fill-rule="evenodd"/></g></svg>