<svg version="1.1" viewBox="0.0 0.0 100.0 50.0" fill="none" stroke="none" stroke-linecap="square" stroke-miterlimit="10" xmlns:xlink="http://www.w3.org/1999/xlink" xmlns="http://www.w3.org/2000/svg"><clipPath id="p.0"><path d="m0 0l100.0 0l0 50.0l-100.0 0l0 -50.0z" clip-rule="nonzero"/></clipPath><g clip-path="url(#p.0)"><path fill="#000000" fill-opacity="0.0" d="m0 0l100.0 0l0 50.0l-100.0 0z" fill-rule="evenodd"/><path fill="#000000" fill-opacity="0.0" d="m36.06852 9.215266c-5.3208466 0 -27.72094 -1.8484955 -31.925085 0c-4.204145 1.8484955 5.5835133 9.242476 6.7002153 11.090972" fill-rule="evenodd"/><path stroke="#000000" stroke-width="3.0" stroke-linejoin="round" stroke-linecap="butt" d="m36.06852 9.215266c-5.3208466 0 -27.72094 -1.8484955 -31.925085 0c-4.204145 1.8484955 5.5835133 9.242476 6.7002153 11.090972" fill-rule="evenodd"/><path fill="#000000" fill-opacity="0.0" d="m19.913958 11.049869c-1.020958 5.5845804 -7.430336 27.74274 -6.1257505 33.507484c1.3045855 5.7647476 11.627721 0.9008255 13.953265 1.0809898" fill-rule="evenodd"/><path stroke="#000000" stroke-width="3.0" stroke-linejoin="round" stroke-linecap="butt" d="m19.913958 11.049869c-1.020958 5.5845804 -7.430336 27.74274 -6.1257505 33.507484c1.3045855 5.7647476 11.627721 0.9008255 13.953265 1.0809898" fill-rule="evenodd"/><path fill="#000000" fill-opacity="0.0" d="m21.08924 12.349081l79.30708 0l0 21.322836l-79.30708 0z" fill-rule="evenodd"/><path fill="#000000" d="m36.401737 32.829082l-3.34375 0l-1.3281231 -3.468752l-6.109375 0l-1.265625 3.468752l-3.265625 0l5.953125 -15.265627l3.25 0l6.109373 15.265627zm-5.671873 -6.046877l-2.09375 -5.65625l-2.0625 5.65625l4.15625 0zm7.3087444 6.046877l0 -15.265627l11.328125 0l0 2.578125l-8.234375 0l0 3.390625l7.65625 0l0 2.5625l-7.65625 0l0 4.15625l8.515625 0l0 2.578127l-11.609375 0zm14.194443 0l0 -15.265627l4.609375 0l2.765625 10.40625l2.734375 -10.40625l4.625004 0l0 15.265627l-2.859375 0l0 -12.015627l-3.0312538 12.015627l-2.96875 0l-3.015625 -12.015627l0 12.015627l-2.859375 0zm17.016499 -4.968752l3.0 -0.296875q0.28125 1.515625 1.109375 2.234375q0.828125 0.703125 2.234375 0.703125q1.484375 0 2.234375 -0.625q0.765625 -0.640625 0.765625 -1.484375q0 -0.546875 -0.328125 -0.921875q-0.3125 -0.375 -1.109375 -0.65625q-0.53125 -0.1875 -2.46875 -0.671875q-2.46875 -0.609375 -3.46875 -1.515625q-1.40625 -1.25 -1.40625 -3.0625q0 -1.171875 0.65625 -2.1875q0.65625 -1.015625 1.90625 -1.546875q1.25 -0.53125 3.0 -0.53125q2.875 0 4.328125 1.265625q1.453125 1.265625 1.53125 3.359375l-3.078125 0.140625q-0.203125 -1.171875 -0.859375 -1.6875q-0.640625 -0.515625 -1.953125 -0.515625q-1.34375 0 -2.09375 0.546875q-0.5 0.359375 -0.5 0.953125q0 0.53125 0.46875 0.921875q0.578125 0.484375 2.828125 1.015625q2.25 0.53125 3.328125 1.109375q1.078125 0.5625 1.6875 1.546875q0.609375 0.984375 0.609375 2.421875q0 1.3125 -0.734375 2.46875q-0.734375 1.140625 -2.0625 1.7031269q-1.328125 0.546875 -3.3125 0.546875q-2.90625 0 -4.453125 -1.3281269q-1.546875 -1.34375 -1.859375 -3.90625zm28.772568 4.968752l-3.34375 0l-1.328125 -3.468752l-6.109375 0l-1.265625 3.468752l-3.265625 0l5.953125 -15.265627l3.25 0l6.109375 15.265627zm-5.671875 -6.046877l-2.09375 -5.65625l-2.0625 5.65625l4.15625 0z" fill-rule="nonzero"/></g></svg>